<svg width="24" height="24" viewBox="0 0 24 24" fill="none" xmlns="http://www.w3.org/2000/svg">

<g id="Source icons">
<rect x="-177.004" y="-106.5" width="250" height="521" rx="4.5" fill="white"/>
<rect x="-177.004" y="-106.5" width="250" height="521" rx="4.5" stroke="#A028FF" stroke-dasharray="10 5"/>
<g id="Source Type=high risc alerts, size=big">
<path d="M0 2.25C0 1.00736 1.00736 0 2.25 0H21.75C22.9926 0 24 1.00736 24 2.25V21.75C24 22.9926 22.9926 24 21.75 24H2.25C1.00736 24 0 22.9926 0 21.75V2.25Z" fill="#A028FF" fill-opacity="0.1"/>
<g id="Nav Icons">
<g id="Union">
<mask id="path-3-inside-1_6_814" fill="white">
<path d="M12 6.75C14.4921 6.75 16.5126 8.77062 16.5127 11.2627V14.4795C16.9524 14.7239 17.2499 15.1928 17.25 15.7314C17.25 16.5222 16.6091 17.1631 15.8184 17.1631H13.4707C13.1249 17.6513 12.5569 17.9707 11.9131 17.9707C11.2693 17.9706 10.7012 17.6513 10.3555 17.1631H8.18164C7.39102 17.1629 6.75 16.5221 6.75 15.7314C6.75006 15.1929 7.04776 14.7239 7.4873 14.4795V11.2627C7.48736 8.77065 9.50796 6.75006 12 6.75Z"/>
</mask>
<path d="M12 6.75V5.85H12L12 6.75ZM16.5127 11.2627H17.4127V11.2627L16.5127 11.2627ZM16.5127 14.4795H15.6127V15.009L16.0755 15.2662L16.5127 14.4795ZM17.25 15.7314H18.15V15.7313L17.25 15.7314ZM15.8184 17.1631V18.0631H15.8184L15.8184 17.1631ZM13.4707 17.1631V16.2631H13.0053L12.7363 16.6429L13.4707 17.1631ZM11.9131 17.9707L11.913 18.8707H11.9131V17.9707ZM10.3555 17.1631L11.09 16.643L10.8209 16.2631H10.3555V17.1631ZM8.18164 17.1631L8.18143 18.0631H8.18164V17.1631ZM6.75 15.7314L5.85 15.7313V15.7314H6.75ZM7.4873 14.4795L7.92467 15.2661L8.3873 15.0088V14.4795H7.4873ZM7.4873 11.2627L6.5873 11.2627V11.2627H7.4873ZM12 6.75V7.65C13.995 7.65 15.6127 9.26766 15.6127 11.2627L16.5127 11.2627L17.4127 11.2627C17.4126 8.27357 14.9892 5.85 12 5.85V6.75ZM16.5127 11.2627H15.6127V14.4795H16.5127H17.4127V11.2627H16.5127ZM16.5127 14.4795L16.0755 15.2662C16.2413 15.3583 16.35 15.5329 16.35 15.7315L17.25 15.7314L18.15 15.7313C18.1499 14.8527 17.6634 14.0894 16.9499 13.6928L16.5127 14.4795ZM17.25 15.7314H16.35C16.35 16.0251 16.1121 16.2631 15.8183 16.2631L15.8184 17.1631L15.8184 18.0631C17.1062 18.0631 18.15 17.0193 18.15 15.7314H17.25ZM15.8184 17.1631V16.2631H13.4707V17.1631V18.0631H15.8184V17.1631ZM13.4707 17.1631L12.7363 16.6429C12.5511 16.9043 12.2512 17.0707 11.9131 17.0707V17.9707V18.8707C12.8625 18.8707 13.6987 18.3982 14.2051 17.6833L13.4707 17.1631ZM11.9131 17.9707L11.9132 17.0707C11.5748 17.0707 11.275 16.9042 11.09 16.643L10.3555 17.1631L9.62098 17.6832C10.1275 18.3984 10.9638 18.8706 11.913 18.8707L11.9131 17.9707ZM10.3555 17.1631V16.2631H8.18164V17.1631V18.0631H10.3555V17.1631ZM8.18164 17.1631L8.18185 16.2631C7.88792 16.263 7.65 16.0248 7.65 15.7314H6.75H5.85C5.85 17.0194 6.89413 18.0628 8.18143 18.0631L8.18164 17.1631ZM6.75 15.7314L7.65 15.7315C7.65002 15.5331 7.75871 15.3584 7.92467 15.2661L7.4873 14.4795L7.04994 13.6929C6.33682 14.0894 5.8501 14.8526 5.85 15.7313L6.75 15.7314ZM7.4873 14.4795H8.3873V11.2627H7.4873H6.5873V14.4795H7.4873ZM7.4873 11.2627L8.3873 11.2627C8.38735 9.26772 10.005 7.65005 12 7.65L12 6.75L12 5.85C9.0109 5.85008 6.58737 8.27359 6.5873 11.2627L7.4873 11.2627Z" fill="#A028FF" mask="url(#path-3-inside-1_6_814)"/>
</g>
<rect id="Rectangle 34624879" x="14" y="5" width="5" height="8" rx="2.5" fill="#F5E9FF"/>
<g id="Group 1000007837">
<circle id="Ellipse 586" cx="16.75" cy="10.1409" r="0.45" stroke="#A028FF" stroke-width="0.6"/>
<path id="Vector" d="M16.825 7.75L16.825 5" stroke="#A028FF" stroke-width="0.9" stroke-linecap="round"/>
</g>
</g>
</g>
</g>
</svg>
