<svg width="18" height="19" viewBox="0 0 18 19" fill="none" xmlns="http://www.w3.org/2000/svg">
<path fill-rule="evenodd" clip-rule="evenodd" d="M14.2062 0.604463L14.2062 0.599989L5.211 0.599988C4.24389 0.599988 3.38529 1.21883 3.07946 2.13631L0.717488 9.22223C0.232522 10.6771 1.31543 12.1796 2.84902 12.1796L7.77309 12.1796L7.77309 16.4977C7.77309 17.0281 7.88462 17.4749 8.32289 17.7737C9.02915 18.2551 9.97425 17.8454 10.4187 17.1153L13.9031 11.3909L15.8324 11.3909C16.3287 11.3909 16.7311 10.9885 16.7311 10.4922L16.7311 1.5032C16.7311 1.00684 16.3287 0.604464 15.8324 0.604464L14.2062 0.604463Z" fill="#222222"/>
<path d="M14.2062 0.599989L14.8062 0.599989L14.8062 -1.14886e-05L14.2062 -1.15673e-05L14.2062 0.599989ZM14.2062 0.604463L13.6062 0.604463L13.6062 1.20446L14.2062 1.20446L14.2062 0.604463ZM3.07946 2.13631L2.51025 1.94657L2.51025 1.94657L3.07946 2.13631ZM0.717488 9.22223L1.2867 9.41197L1.2867 9.41197L0.717488 9.22223ZM2.84902 12.1796L2.84902 12.7796L2.84902 12.7796L2.84902 12.1796ZM7.77309 12.1796L8.37309 12.1796L8.37309 11.5796L7.77309 11.5796L7.77309 12.1796ZM7.77309 16.4977L7.17309 16.4977L7.17309 16.4977L7.77309 16.4977ZM8.32289 17.7737L7.98495 18.2694L7.98495 18.2694L8.32289 17.7737ZM10.4187 17.1153L10.9312 17.4273L10.9312 17.4273L10.4187 17.1153ZM13.9031 11.3909L13.9031 10.7909L13.5659 10.7909L13.3906 11.079L13.9031 11.3909ZM15.8324 11.3909L15.8324 11.9909V11.9909L15.8324 11.3909ZM14.2062 0.599989L13.6062 0.599989L13.6062 0.604463L14.2062 0.604463L14.8062 0.604464L14.8062 0.599989L14.2062 0.599989ZM5.211 0.599988L5.211 1.19999L14.2062 1.19999L14.2062 0.599989L14.2062 -1.15673e-05L5.211 -1.27468e-05L5.211 0.599988ZM3.07946 2.13631L3.64867 2.32605C3.87283 1.65358 4.50215 1.19999 5.211 1.19999L5.211 0.599988L5.211 -1.27468e-05C3.98563 -1.29075e-05 2.89775 0.784092 2.51025 1.94657L3.07946 2.13631ZM0.717488 9.22223L1.2867 9.41197L3.64867 2.32605L3.07946 2.13631L2.51025 1.94657L0.148278 9.03249L0.717488 9.22223ZM2.84902 12.1796L2.84902 11.5796C1.72496 11.5796 0.931239 10.4783 1.2867 9.41197L0.717488 9.22223L0.148278 9.03249C-0.466194 10.8759 0.905894 12.7796 2.84902 12.7796L2.84902 12.1796ZM7.77309 12.1796L7.77309 11.5796L2.84902 11.5796L2.84902 12.1796L2.84902 12.7796L7.77309 12.7796L7.77309 12.1796ZM7.77309 16.4977L8.37309 16.4977L8.37309 12.1796L7.77309 12.1796L7.17309 12.1796L7.17309 16.4977L7.77309 16.4977ZM8.32289 17.7737L8.66082 17.2779C8.4657 17.1449 8.37309 16.95 8.37309 16.4977L7.77309 16.4977L7.17309 16.4977C7.17309 17.1062 7.30354 17.805 7.98495 18.2694L8.32289 17.7737ZM10.4187 17.1153L9.90615 16.8033C9.75237 17.056 9.51302 17.2474 9.27015 17.3327C9.03596 17.415 8.82879 17.3924 8.66082 17.2779L8.32289 17.7737L7.98495 18.2694C8.52325 18.6364 9.14176 18.6497 9.66779 18.4649C10.1852 18.2832 10.6406 17.9048 10.9312 17.4273L10.4187 17.1153ZM13.9031 11.3909L13.3906 11.079L9.90615 16.8033L10.4187 17.1153L10.9312 17.4273L14.4156 11.7029L13.9031 11.3909ZM15.8324 11.3909L15.8324 10.7909L13.9031 10.7909L13.9031 11.3909L13.9031 11.9909L15.8324 11.9909L15.8324 11.3909ZM16.7311 10.4922L16.1311 10.4922C16.1311 10.6572 15.9973 10.7909 15.8324 10.7909L15.8324 11.3909L15.8324 11.9909C16.6601 11.9909 17.3311 11.3199 17.3311 10.4922L16.7311 10.4922ZM16.7311 1.5032L16.1311 1.5032L16.1311 10.4922L16.7311 10.4922L17.3311 10.4922L17.3311 1.5032L16.7311 1.5032ZM15.8324 0.604464L15.8324 1.20446C15.9973 1.20446 16.1311 1.33821 16.1311 1.5032L16.7311 1.5032L17.3311 1.5032C17.3311 0.675469 16.6601 0.00446339 15.8324 0.00446329L15.8324 0.604464ZM14.2062 0.604463L14.2062 1.20446L15.8324 1.20446L15.8324 0.604464L15.8324 0.00446329L14.2062 0.00446307L14.2062 0.604463Z" fill="#222222"/>
</svg>
